<?xml version="1.0" encoding="UTF-8" standalone="no"?>
<!-- Created with Inkscape (http://www.inkscape.org/) -->

<svg
   width="71.840004"
   height="71.840004"
   viewBox="0 0 71.840005 71.840002"
   version="1.1"
   id="svg5"
   inkscape:version="1.2.1 (9c6d41e410, 2022-07-14)"
   sodipodi:docname="favicon.svg"
   xmlns:inkscape="http://www.inkscape.org/namespaces/inkscape"
   xmlns:sodipodi="http://sodipodi.sourceforge.net/DTD/sodipodi-0.dtd"
   xmlns="http://www.w3.org/2000/svg"
   xmlns:svg="http://www.w3.org/2000/svg">
  <sodipodi:namedview
     id="namedview7"
     pagecolor="#ffffff"
     bordercolor="#000000"
     borderopacity="0.25"
     inkscape:showpageshadow="2"
     inkscape:pageopacity="0.0"
     inkscape:pagecheckerboard="0"
     inkscape:deskcolor="#d1d1d1"
     inkscape:document-units="px"
     showgrid="false"
     inkscape:zoom="3.2566196"
     inkscape:cx="-65.251711"
     inkscape:cy="2.1494681"
     inkscape:window-width="1920"
     inkscape:window-height="1009"
     inkscape:window-x="-8"
     inkscape:window-y="-8"
     inkscape:window-maximized="1"
     inkscape:current-layer="layer1" />
  <defs
     id="defs2" />
  <g
     inkscape:label="Layer 1"
     inkscape:groupmode="layer"
     id="layer1"
     transform="translate(-54.080003,-69.320001)">
    <rect
       style="fill:#0a3161;fill-opacity:1;stroke:#0a3161;stroke-width:1.44972;stroke-linecap:round;stroke-linejoin:round;paint-order:stroke fill markers"
       id="rect958"
       width="70.390282"
       height="70.390282"
       x="54.804863"
       y="70.044861"
       ry="10.391599" />
    <text
       xml:space="preserve"
       style="font-size:40px;font-family:'American Scribe';-inkscape-font-specification:'American Scribe';text-align:center;text-anchor:middle;display:none;fill:#b31942;fill-opacity:1;stroke:#b31942;stroke-linecap:round;stroke-linejoin:round;stroke-opacity:1;paint-order:stroke markers fill"
       x="76.080009"
       y="119.06001"
       id="text1077"
       inkscape:label="text(We) Src"
       sodipodi:insensitive="true"><tspan
         sodipodi:role="line"
         id="tspan1075"
         x="0"
         y="0"><tspan
           style="fill:#b31942;fill-opacity:1;stroke:none"
           id="tspan2063">W</tspan><tspan
           style="fill:#ffffff;fill-opacity:1;stroke:none"
           id="tspan2061">E</tspan></tspan></text>
    <g
       aria-label="WE"
       id="text1077-3"
       style="font-size:40px;font-family:'American Scribe';-inkscape-font-specification:'American Scribe';text-align:center;text-anchor:middle;fill:#b31942;stroke:#b31942;stroke-linecap:round;stroke-linejoin:round;paint-order:stroke markers fill"
       inkscape:label="text(We) Path">
      <path
         d="m 124.92,91.500013 q 0,0.32 -0.16,0.64 -0.4,0.68 -2.92,2.28 -1.96,1.28 -3.36,2 -5.8,3.04 -9.12,4.199997 -1.36,0.48 -3.12,1.24 -1.24,0.6 -3.84,1.44 -0.8,0.12 -4.759995,1.24 -2.88,0.8 -4.84,0.8 -2.64,0 -3.16,-0.6 -0.04,-0.04 -0.24,-0.44 l -0.08,-0.04 q -0.2,0 -1.72,1.84 -1.4,1.6 -1.84,2.2 -0.6,0.8 -1.64,1.8 -0.92,0.84 -1.84,1.72 -0.44,0.44 -0.92,1.4 -0.6,1.16 -0.84,1.48 -0.04,0.08 -2.6,3.32 -0.64,0.84 -1.32,1.68 -0.96,1.12 -1.48,1.24 -0.52,0.16 -1,0.16 -0.96,0 -0.96,-0.64 0,-0.32 0.84,-1.24 0.56,-0.56 1.12,-1.16 1.84,-2.28 2.44,-3.8 0.76,-1.52 2,-4.68 0.36,-1.32 0.72,-2.6 0.48,-1.48 1.04,-2.48 0.24,-0.32 0.52,-0.96 l -0.04,-0.08 -0.04,-0.04 q 0.12,0 -2.2,1.56 -7.52,5.08 -8.56,6.76 -0.44,0.96 -1.52,2.76 -0.88,1.08 -2.52,3.4 -0.68,1.16 -1.04,1.64 -0.72,1 -1.36,1.32 -0.88,0.52 -1.76,0.52 -1.12,0 -1.12,-0.68 0,-0.52 0.84,-1.28 1,-0.92 1.04,-0.96 0.44,-0.44 0.84,-1.2 0.04,-0.08 1.08,-1.6 0.52,-0.72 1.08,-1.88 1.6,-3.48 2.84,-5.44 1.68,-2.76 1.68,-2.72 0,-0.12 -0.08,-0.12 0,0 -2.4,1.96 -0.96,0.88 -3,2.48 -1.96,1.32 -7.72,5.84 -2.12,1.68 -2.44,1.68 -0.36,0 -0.36,-0.24 0,-0.12 0.16,-0.24 0.68,-0.52 2.04,-1.6 2.04,-1.68 6.24,-4.84 1.16,-0.76 2.72,-2.12 1.28,-1.16 2.6,-2.32 1.08,-1.16 3.28,-3.2 1.08,-0.88 1.76,-1.92 1.88,-2.799997 3.32,-4.239997 1.16,-1.2 1.28,-1.32 1,-0.92 1.4,-1 0.08,-0.04 0.32,-0.04 0.96,0 0.96,0.6 0,0.28 -0.72,0.88 -1.84,1.52 -3.48,4.239997 -0.64,1.32 -2.2,3.68 -0.36,0.4 -1.56,2.76 -1.16,2.32 -1.2,2.72 l 0.08,0.04 q 0.24,-0.04 0.72,-0.48 1,-0.88 4.4,-3.32 1.6,-1 4.08,-2.92 0.44,-0.52 1.44,-1.56 1.4,-1.279997 2.16,-2.399997 2.16,-3.12 3.12,-3.12 0.36,0 0.36,0.28 0,0.44 -0.6,1.08 -0.84,0.92 -1.96,2.92 -1.2,2.119997 -1.36,3.159997 -0.12,0.84 -0.8,2.52 -0.68,1.64 -0.8,2.6 0,0.08 -0.08,0.44 -0.04,0.32 -0.04,0.52 0,0.2 0.28,0.2 0.36,0 1.04,-0.8 0.44,-0.4 1.32,-1.28 0.92,-1.08 1.72,-2.16 0.68,-0.64 1.6,-1.92 0.92,-2.16 2.36,-3.399997 0.88,-0.72 0.92,-0.72 0.44,-0.28 1.08,-0.28 1.24,0 1.24,0.6 0,0.36 -1.36,1.479997 -1.32,1.08 -1.32,1.76 0,1.32 3.6,1.32 1.44,0 9.639995,-2.68 4.64,-1.519997 10.32,-4.159997 8.68,-4.08 8.68,-5.72 0,-0.44 -0.8,-0.64 -0.76,-0.2 -0.76,-0.64 0,-0.24 0.2,-0.56 0.24,-0.32 0.48,-0.32 0.52,0 1.24,0.92 0.72,0.92 0.72,1.48 z"
         style="stroke:none"
         id="path2194"
         inkscape:label="W" />
      <path
         d="m 108.15998,96.780013 q 0,1.24 -0.76,3.16 -0.68,1.759997 -1.52,2.919997 -1.48,2 -2.4,2 -0.44,0 -1,-0.36 -2,-1.24 -2,-3.16 0,-1.24 0.52,-1.24 0.24,0 0.44,0.28 0.24,0.24 0.24,0.48 0,0.08 -0.08,0.32 -0.08,0.2 -0.08,0.36 0,0.52 0.64,1.36 0.64,0.8 1.2,0.8 0.6,0 1.52,-1.16 0.72,-1 1,-1.76 0.96,-2.639997 0.96,-4.079997 0,-1.04 -1.2,-1.04 -2.36,0 -5.879996,2.44 -2.76,1.959997 -4.56,4.839997 -0.92,1.44 -0.92,2.56 0,0.44 0.28,0.44 0,0 0.52,-0.24 0.56,-0.28 1.04,-0.28 0.24,0 0.72,-0.04 0.52,0 0.76,0 1.6,0 1.6,1.2 0,1.04 -1.24,1.8 -1.2,0.76 -2.32,0.76 -0.16,0 -0.48,0 -0.32,-0.04 -0.48,-0.04 -0.72,0 -1,0.36 -1.28,1.6 -2.88,4.2 -2,3.24 -2,4.36 0,1.16 1.88,1.16 2.24,0 5.44,-2.64 0.4,-0.28 1.16,-0.76 0.64,-0.52 1.88,-1.48 0.28,-0.24 0.48,-0.24 0.2,0 0.2,0.2 0,0.28 -1.64,1.68 -1,0.84 -2.04,1.68 -2.8,2.52 -4.92,3.08 -0.88,0.2 -1.92,0.2 -0.36,0 -1.04,-0.08 -0.68,-0.04 -1.04,-0.04 -0.68,0 -1.2,-0.8 -0.44,-0.64 -0.6,-1.44 -0.04,-0.28 -0.04,-0.56 0,-0.92 1.36,-2.8 1,-1.36 3.04,-4.08 0.6,-0.84 1.96,-2.32 0.64,-0.56 0.64,-0.76 0,0 -0.28,-0.52 -0.28,-0.56 -0.28,-1.04 0,-0.68 0.32,-1.6 0.48,-1.4 1.32,-2.48 0.88,-1.08 1.76,-2.12 2.84,-3.399997 5.799996,-4.559997 3.68,-1.48 4.44,-1.48 1.16,0 1.92,0.72 0.76,0.72 0.76,1.84 z M 97.119984,107.38001 q 0,-0.52 -0.64,-0.52 -0.32,0 -0.76,0.16 -0.44,0.16 -0.44,0.44 0,0.32 1,0.32 0.84,0 0.84,-0.4 z"
         style="fill:#ffffff;stroke:none"
         id="path2196"
         inkscape:label="E" />
    </g>
  </g>
</svg>
